With: Indiana Evans, Brenton Thwaites and Denise Richards

De ijverige Emma Robinson en lijntrekker Dean McMullen zijn twee tieners die elkaar leren kennen, een normaal leven leiden en samen naar school gaan. Dan gaat hun klas op een humanitaire reis naar Trinidad. Op weg daarheen is er een feestje op de boot, maar er komt een zware storm opzetten, waarbij Emma overboord slaat en Dean haar achterna springt om haar te redden. Zo spoelen ze aan op een verlaten eiland. Geleidelijk aan leren ze te overleven in hun nieuwe omgeving. Emma en Dean worden op elkaar verliefd, terwijl hun ouders een zoektocht naar hen organiseren.

Two high school students become stranded on a tropical island and must rely on each other for survival. They also learn more about themselves and each other while falling in love. 
 
http://www.imdb.com/title/tt2287663	

------------------------ Dutch Friends ------------------------
---------------------------------------------------------------
- Bezoek ook eens mijn vrienden op:  http://www.Film-Test.nl --
----- voor mijn Nederlandse Sync. ondertitels ---- en meer ----
------- http://www.Film-Test.nl ---- Over Films en meer -------
---------------------------------------------------------------

General:

Complete name                    : Blue Lagoon, The AwakeningBlue Lagoon, The Awakening.avi
Format                           : AVI
Format/Info                      : Audio Video Interleave
File size                        : 1.75 GiB
Duration                         : 1h 28mn
Overall bit rate                 : 2 817 Kbps

Video:

Format                           : MPEG-4 Visual
Format profile                   : Simple@L3
Format settings, BVOP            : No
Format settings, QPel            : No
Format settings, GMC             : No warppoints
Format settings, Matrix          : Default (H.263)
Codec ID                         : XVID
Codec ID/Hint                    : XviD
Duration                         : 1h 28mn
Bit rate                         : 2 359 Kbps
Width                            : 704 pixels
Height                           : 396 pixels
Display aspect ratio             : 16:9
Frame rate                       : 23.976 fps
Color space                      : YUV
Chroma subsampling               : 4:2:0
Bit depth                        : 8 bits
Scan type                        : Progressive
Compression mode                 : Lossy
Bits/(Pixel*Frame)               : 0.353
Stream size                      : 1.46 GiB (84%)
Writing library                  : XviD 1.1.2 (UTC 2006-11-01)

Audio:

Format                           : AC-3
Format/Info                      : Audio Coding 3
Mode extension                   : CM (complete main)
Codec ID                         : 2000
Duration                         : 1h 28mn
Bit rate mode                    : Constant
Bit rate                         : 448 Kbps
Channel(s)                       : 6 channels
Channel positions                : Front: L C R, Side: L R, LFE
Sampling rate                    : 48.0 KHz
Bit depth                        : 16 bits
Compression mode                 : Lossy
Stream size                      : 285 MiB (16%)
Alignment                        : Aligned on interleaves
Interleave, duration             : 32 ms (0.77 video frame)
Interleave, preload duration     : 160 ms